
        <svg xmlns="http://www.w3.org/2000/svg" xmlns:xlink="http://www.w3.org/1999/xlink" version="1.1" width="3168.9555429719267" 
        height="595.0818514169714" viewBox="0 0 3168.9555429719267 595.0818514169714">
			
			<g transform="scale(8.44777714859632) translate(10, 10)">
				<defs id="SvgjsDefs6899"></defs><g id="SvgjsG6900" featureKey="symbolFeature-0" transform="matrix(0.7351836214733404,0,0,0.7351836214733404,-3.9398491789187906,-11.537971934890793)" fill="#0047ab"><g xmlns="http://www.w3.org/2000/svg"><path fill-rule="evenodd" clip-rule="evenodd" d="M44.062,84.306c-0.026-22.58,18.41-41.016,41.015-41.016   c2.296,0,4.549,0.19,6.566,0.685l2.998-7.429c-2.899-0.843-6.193-1.187-9.564-1.187c-26.973,0-48.972,21.999-48.983,48.947H44.062   L44.062,84.306z M61.106,84.306c-0.018-13.189,10.758-23.965,24.108-23.93l3.16-8.196c-1.084-0.111-2.184-0.167-3.296-0.167   c-17.8,0-32.318,14.518-32.319,32.293H61.106L61.106,84.306z"></path><path fill-rule="evenodd" clip-rule="evenodd" d="M55.938,15.694c0.026,22.58-18.41,41.016-41.015,41.016   c-2.296,0-4.549-0.19-6.566-0.685l-2.998,7.429c2.899,0.843,6.193,1.187,9.564,1.187c26.973,0,48.972-21.999,48.983-48.947H55.938   L55.938,15.694z M38.894,15.694c0.018,13.189-10.758,23.965-24.108,23.93l-3.16,8.196c1.084,0.111,2.184,0.167,3.296,0.167   c17.8,0,32.318-14.518,32.319-32.293H38.894L38.894,15.694z"></path></g></g><g id="SvgjsG6901" featureKey="nameLeftFeature-0" transform="matrix(1.9053298603752016,0,0,1.9053298603752016,84.53969901847141,-0.07719956349604118)" fill="#111111"><path d="M0.86441 17.6442 l0.96576 -1.1188 c0.20339 -0.23746 0.45763 -0.23746 0.64407 -0.10186 c0.55932 0.47458 1.5593 1.3729 2.8136 1.3729 c1.2203 0 2.2712 -0.4578 2.2712 -1.5086 c0 -1.1017 -1.1356 -1.4237 -2.3051 -1.8983 c-2.4237 -1 -4.1864 -2.0339 -4.1864 -4.2373 c0 -1.7288 1.2712 -3.8136 4.339 -3.8136 c2.0847 0 3.5934 1.1866 4.0341 1.6273 c0.18644 0.18644 0.28814 0.42373 0.11864 0.62712 l-0.84746 1.1186 c-0.16966 0.22034 -0.40678 0.32203 -0.67797 0.13559 c-0.54237 -0.42373 -1.4237 -1.2034 -2.6102 -1.2034 c-1.2034 0 -1.9492 0.69492 -1.9492 1.5085 c0 0.89831 0.77966 1.339 2.0508 1.8475 c2.2203 0.93254 4.4407 1.9325 4.4407 4.3224 c0 1.9831 -1.9659 3.7964 -4.6439 3.7964 c-2.4237 0 -3.9322 -1.5422 -4.3559 -1.949 c-0.15254 -0.13559 -0.30508 -0.32203 -0.10169 -0.52542 z M29.050779661016946 6.441000000000001 c0.18644 0 0.39032 0.15221 0.28863 0.38949 l-6.39 13 c-0.067797 0.13559 -0.20339 0.25407 -0.35576 0.25407 l-0.13559 0 c-0.16949 0 -0.30508 -0.11848 -0.37288 -0.25407 l-1.9831 -4.1695 l-2 4.1695 c-0.067797 0.13559 -0.18644 0.25407 -0.3561 0.25407 l-0.13559 0 c-0.16949 0 -0.30508 -0.11848 -0.35593 -0.25407 l-6.3898 -13.017 c-0.11881 -0.22017 0.10153 -0.37271 0.28797 -0.37271 l2.2203 0 c0.16949 0 0.25424 0.15254 0.33898 0.33898 l3.9659 8.4237 l1.0678 -2.3729 l-2.8812 -6.0169 c-0.10169 -0.22017 0.10169 -0.37271 0.28814 -0.37271 l2.2203 0 c0.18644 0 0.27119 0.15254 0.33898 0.32203 l1.3898 3.0678 l1.3729 -3.0508 c0.084746 -0.18644 0.16949 -0.33898 0.35593 -0.33898 l2.2034 0 c0.20339 0 0.40678 0.15254 0.28814 0.38983 l-2.8644 6 l1.0678 2.3729 l3.949 -8.4407 c0.084746 -0.16949 0.16949 -0.32203 0.35593 -0.32203 l2.2203 0 z M33.15241016949153 6.441000000000001 l-1.6778 0 c-0.18644 0 -0.32203 0.15254 -0.32203 0.32203 l0 12.898 c0 0.18644 0.15254 0.33881 0.33898 0.33881 l1.678 0 c0.16933 0 0.32186 -0.16933 0.32186 -0.33881 l0 -12.898 c0 -0.16949 -0.16949 -0.32203 -0.33898 -0.32203 z M44.18625762711865 6.441000000000001 c0.18661 0 0.33898 0.15254 0.33898 0.32203 l0 1.6949 c0 0.18644 -0.13559 0.32203 -0.33898 0.32203 l-6.0678 0 l0 3.4068 l3.2203 0 c0.18644 0 0.33898 0.15254 0.33898 0.33915 l0 1.6778 c0 0.20339 -0.13559 0.3222 -0.33898 0.3222 l-3.2203 0 l0 5.1356 c0 0.20339 -0.11864 0.33881 -0.30508 0.33881 l-1.2881 0 c-0.52542 0 -0.83051 -0.37288 -0.83051 -0.86441 l0 -12.373 c0 -0.16949 0.13559 -0.32203 0.32203 -0.32203 l8.1695 0 z M56.20289830508476 6.441000000000001 c0.16949 0 0.32203 0.13592 0.32203 0.32237 l0 1.6949 c0 0.16933 -0.15254 0.32186 -0.32203 0.32186 l-3.8305 0 l0 10.881 c0 0.20339 -0.13559 0.33881 -0.32203 0.33881 l-1.2542 0 c-0.54237 0 -0.84746 -0.37288 -0.84746 -0.86441 l0 -10.356 l-3.8136 0 c-0.16949 0 -0.33898 -0.13559 -0.33898 -0.32203 l0 -1.678 c0 -0.18644 0.15254 -0.33898 0.33898 -0.33898 l10.068 0 z"></path></g><g id="SvgjsG6902" featureKey="nameRightFeature-0" transform="matrix(1.9054213772225443,0,0,1.9054213772225443,204.04613830124188,-0.0466136916556934)" fill="#111111"><path d="M22.32176271186441 6.4239999999999995 c0.11864 0 0.23746 0.11897 0.13576 0.30558 l-6.3053 13.152 c-0.050847 0.10169 -0.13559 0.16933 -0.25424 0.16933 l-0.15238 0 c-0.10186 0 -0.20356 -0.067631 -0.23746 -0.16933 l-2.1695 -4.5593 l-2.1695 4.5763 c-0.050847 0.10153 -0.13559 0.16933 -0.25424 0.16933 l-0.15254 0 c-0.10169 0 -0.20339 -0.067797 -0.25424 -0.16933 l-6.3051 -13.169 c-0.084746 -0.16966 0.033898 -0.28831 0.15254 -0.28831 l1.1356 0 c0.15254 0 0.18644 0.10169 0.27119 0.27119 l5.0847 10.898 l1.7627 -3.8305 l-3.3559 -7.0678 c-0.084746 -0.16949 0.033898 -0.28814 0.15271 -0.28814 l1.1525 0 c0.13559 0 0.18644 0.10186 0.25407 0.27119 l2.5254 5.4915 l2.5085 -5.4746 c0.084746 -0.16949 0.13559 -0.27119 0.27119 -0.27119 l1.1525 0 c0.11864 0 0.22034 0.11864 0.13559 0.30508 l-3.339 7.0339 l1.7627 3.8136 l5.0847 -10.898 c0.067797 -0.16933 0.11864 -0.27119 0.25424 -0.27119 l1.1525 0 z M35.15225423728814 6.441000000000001 c0.15254 0 0.23729 0.067963 0.23729 0.22051 l0 13.119 c0 0.13559 -0.067797 0.22017 -0.20339 0.22017 l-0.6778 0 c-0.30508 0 -0.44068 -0.18644 -0.44068 -0.45763 l0 -5.5593 l-8.5593 0 l0 5.7797 c0 0.15254 -0.067797 0.23712 -0.22034 0.23712 l-0.86441 0 c-0.16966 0 -0.23746 -0.08458 -0.23746 -0.23712 l0 -13.102 c0 -0.15254 0.067797 -0.22034 0.22034 -0.22034 l0.88136 0 c0.13559 0 0.22034 0.067797 0.22034 0.22034 l0 6 l8.5593 0 l0 -6 c0 -0.15254 0.067797 -0.22034 0.20339 -0.22034 l0.88136 0 z M46.626916949152545 7.728999999999999 l-7.3556 0.00049656 l0 4.9659 l4.5424 0 c0.15254 0 0.23729 0.067797 0.23729 0.23729 l0 0.81339 c0 0.15254 -0.084746 0.22034 -0.23729 0.22034 l-4.5424 0 l0 4.7458 l7.3559 0 c0.15254 0 0.23712 0.084746 0.23712 0.23712 l0 0.81356 c0 0.16949 -0.067797 0.23712 -0.23729 0.23712 l-8.4746 0 c-0.15254 0 -0.22034 -0.08458 -0.22034 -0.22017 l0 -13.119 c0 -0.15254 0.084746 -0.22034 0.22034 -0.22034 l8.4746 0 c0.15254 0 0.23712 0.084746 0.23712 0.22034 l0 0.84746 c0 0.13559 -0.067797 0.22034 -0.23729 0.22034 z M57.83030677966102 7.728999999999999 l-7.3556 0.00049656 l0 4.9659 l4.5424 0 c0.15254 0 0.23729 0.067797 0.23729 0.23729 l0 0.81339 c0 0.15254 -0.084746 0.22034 -0.23729 0.22034 l-4.5424 0 l0 4.7458 l7.3559 0 c0.15254 0 0.23712 0.084746 0.23712 0.23712 l0 0.81356 c0 0.16949 -0.067797 0.23712 -0.23729 0.23712 l-8.4746 0 c-0.15254 0 -0.22034 -0.08458 -0.22034 -0.22017 l0 -13.119 c0 -0.15254 0.084746 -0.22034 0.22034 -0.22034 l8.4746 0 c0.15254 0 0.23712 0.084746 0.23712 0.22034 l0 0.84746 c0 0.13559 -0.067797 0.22034 -0.23729 0.22034 z M68.32199661016949 18.712 c0.13559 0 0.20339 0.084912 0.20339 0.23729 l0 0.83051 c0 0.15254 -0.067797 0.22017 -0.20339 0.22017 l-7.9492 0 c-0.15254 0 -0.20339 -0.10153 -0.20339 -0.22017 l0 -13.119 c0 -0.15254 0.067797 -0.22034 0.22034 -0.22034 l0.89831 0 c0.13559 0 0.22034 0.067797 0.22034 0.22034 l0 12.051 l6.8136 0 z M70.30508711864407 17.729 l0.47441 -0.55932 c0.15238 -0.15254 0.30492 -0.13559 0.44051 -0.033898 c0.32203 0.27119 1.6441 1.7119 3.5254 1.7119 c2.2373 0 3.2203 -1.2203 3.2203 -2.4237 c0 -1.7288 -1.9663 -2.1864 -3.7459 -2.8305 c-2.0169 -0.76271 -3.7458 -1.678 -3.7458 -3.7119 c0 -1.6949 1.2373 -3.5593 4.2712 -3.5593 c2.0847 0 3.5932 1.2542 4 1.6102 c0.13559 0.11864 0.18644 0.27119 0.084912 0.40678 l-0.44068 0.57627 c-0.10169 0.13559 -0.23729 0.16949 -0.38983 0.067797 c-0.33898 -0.25424 -1.5592 -1.3898 -3.2371 -1.3898 c-1.8985 0 -2.9663 1 -2.9663 2.288 c0 1.4915 1.5086 2.0169 3.4917 2.7288 c1.8136 0.67797 4 1.5932 4 3.8305 c0 1.9661 -1.8303 3.6608 -4.5253 3.6608 c-2.4746 0 -4 -1.61 -4.3898 -1.9998 c-0.11864 -0.11864 -0.22034 -0.22034 -0.067797 -0.37271 z"></path></g>
			</g>
		</svg>
	